<?xml version="1.0" encoding="utf-8"?>
<!-- Generator: Adobe Illustrator 26.2.1, SVG Export Plug-In . SVG Version: 6.00 Build 0)  -->
<svg version="1.1" id="a" xmlns="http://www.w3.org/2000/svg" xmlns:xlink="http://www.w3.org/1999/xlink" x="0px" y="0px"
	 viewBox="0 0 1920 1080" style="enable-background:new 0 0 1920 1080;" xml:space="preserve">
<style type="text/css">
	.st0{fill:url(#SVGID_1_);}
	.st1{fill:url(#SVGID_00000178907358299441049550000014435034284666801815_);}
	.st2{opacity:0.8;fill:url(#SVGID_00000068664217842479918300000017382058972469112972_);enable-background:new    ;}
	.st3{fill:url(#SVGID_00000074410860503073303860000017995159747861748615_);}
	.st4{opacity:0.8;fill:url(#SVGID_00000099662313954761062180000006598926979380726437_);enable-background:new    ;}
</style>
<g>
	
		<linearGradient id="SVGID_1_" gradientUnits="userSpaceOnUse" x1="960.6526" y1="-301.27" x2="959.1926" y2="1580.74" gradientTransform="matrix(1 0 0 -1 0 1080)">
		<stop  offset="9.000000e-02" style="stop-color:#C5DF73"/>
		<stop  offset="0.15" style="stop-color:#BED479"/>
		<stop  offset="0.25" style="stop-color:#AFBB8A"/>
		<stop  offset="0.33" style="stop-color:#A2A697"/>
		<stop  offset="0.5" style="stop-color:#8171B9"/>
		<stop  offset="0.58" style="stop-color:#7157CB"/>
		<stop  offset="0.67" style="stop-color:#6341D8"/>
		<stop  offset="0.79" style="stop-color:#552AE8"/>
		<stop  offset="0.99" style="stop-color:#4916F5"/>
	</linearGradient>
	<rect class="st0" width="1920" height="1080"/>
	
		<linearGradient id="SVGID_00000095332231877377931070000000124111732000886673_" gradientUnits="userSpaceOnUse" x1="511.9564" y1="-512.75" x2="510.8365" y2="935.59" gradientTransform="matrix(-1 0 0 1 954 526)">
		<stop  offset="9.000000e-02" style="stop-color:#C5DF73"/>
		<stop  offset="0.15" style="stop-color:#BED479"/>
		<stop  offset="0.25" style="stop-color:#AFBB8A"/>
		<stop  offset="0.33" style="stop-color:#A2A697"/>
		<stop  offset="0.5" style="stop-color:#8171B9"/>
		<stop  offset="0.58" style="stop-color:#7157CB"/>
		<stop  offset="0.67" style="stop-color:#6341D8"/>
		<stop  offset="0.79" style="stop-color:#552AE8"/>
		<stop  offset="0.99" style="stop-color:#4916F5"/>
	</linearGradient>
	<path style="fill:url(#SVGID_00000095332231877377931070000000124111732000886673_);" d="M-211.1,783.3
		c-12.5-156,113.6-302.2,229.8-369.6c183.4-106.4,406.8-54.6,539.2,28.8c132.6,83.6,135.7,175.1,300.3,255.3
		c142,69.2,221.9,41.2,236.8,85.5c32.4,95.7-283.8,397.3-653.1,402.6C167.3,1189.8-191.3,1030.6-211.1,783.3L-211.1,783.3z"/>
	
		<linearGradient id="SVGID_00000036240423318642493730000013162409137503767209_" gradientUnits="userSpaceOnUse" x1="569.0537" y1="160.4812" x2="567.9136" y2="1622.5011" gradientTransform="matrix(0.5886 4.064268e-02 3.926497e-02 -0.5686 215.4038 686.1577)">
		<stop  offset="9.000000e-02" style="stop-color:#C5DF73"/>
		<stop  offset="0.15" style="stop-color:#BED479"/>
		<stop  offset="0.25" style="stop-color:#AFBB8A"/>
		<stop  offset="0.33" style="stop-color:#A2A697"/>
		<stop  offset="0.5" style="stop-color:#8171B9"/>
		<stop  offset="0.58" style="stop-color:#7157CB"/>
		<stop  offset="0.67" style="stop-color:#6341D8"/>
		<stop  offset="0.79" style="stop-color:#552AE8"/>
		<stop  offset="0.99" style="stop-color:#4916F5"/>
	</linearGradient>
	<path style="opacity:0.8;fill:url(#SVGID_00000036240423318642493730000013162409137503767209_);enable-background:new    ;" d="
		M925.8,201c1.3,88.5-78.8,165.8-150,199.1c-112.3,52.5-242.2,14.2-317.1-38.2c-40.9-28.6-122-65.1-167.3-156.2
		C279.1,180.9,225.2,72.6,272,0C329.6-89.5,499.4-61.8,556-52.6C682.6-32,923.6,51.1,925.8,201L925.8,201z"/>
	
		<linearGradient id="SVGID_00000176030326113354566340000018207251719743020166_" gradientUnits="userSpaceOnUse" x1="-554.9998" y1="-167.6801" x2="-555.9799" y2="1101.51" gradientTransform="matrix(-1 0 0 1 954 526)">
		<stop  offset="9.000000e-02" style="stop-color:#C5DF73"/>
		<stop  offset="0.15" style="stop-color:#BED479"/>
		<stop  offset="0.25" style="stop-color:#AFBB8A"/>
		<stop  offset="0.33" style="stop-color:#A2A697"/>
		<stop  offset="0.5" style="stop-color:#8171B9"/>
		<stop  offset="0.58" style="stop-color:#7157CB"/>
		<stop  offset="0.67" style="stop-color:#6341D8"/>
		<stop  offset="0.79" style="stop-color:#552AE8"/>
		<stop  offset="0.99" style="stop-color:#4916F5"/>
	</linearGradient>
	<path style="fill:url(#SVGID_00000176030326113354566340000018207251719743020166_);" d="M834,1055c-10-193.3,389.1-424.2,749-396
		c286.6,22.4,612.5,214.2,602,396c-10.9,189.2-383.7,331.5-675.5,331C1212,1385.5,843.3,1236.2,834,1055z"/>
	
		<linearGradient id="SVGID_00000029006530307913571170000012717277208592543879_" gradientUnits="userSpaceOnUse" x1="-462.7112" y1="-610.6801" x2="-463.4112" y2="279.7299" gradientTransform="matrix(1 0 0 -1 2145.9199 56.62)">
		<stop  offset="9.000000e-02" style="stop-color:#C5DF73"/>
		<stop  offset="0.15" style="stop-color:#BED479"/>
		<stop  offset="0.25" style="stop-color:#AFBB8A"/>
		<stop  offset="0.33" style="stop-color:#A2A697"/>
		<stop  offset="0.5" style="stop-color:#8171B9"/>
		<stop  offset="0.58" style="stop-color:#7157CB"/>
		<stop  offset="0.67" style="stop-color:#6341D8"/>
		<stop  offset="0.79" style="stop-color:#552AE8"/>
		<stop  offset="0.99" style="stop-color:#4916F5"/>
	</linearGradient>
	<path style="opacity:0.8;fill:url(#SVGID_00000029006530307913571170000012717277208592543879_);enable-background:new    ;" d="
		M2286,161.3c1.5,58.5-104.5,132.2-191.1,155.7c-57,15.5-102.5,8.3-176.4,43.2c-45.2,21.4-69.2,43.4-86.9,56
		c-121.4,86.7-362.8,27.2-522.1-76.2c-27.4-17.8-259.5-168.5-226.8-279.2c44.7-151.5,550.1-110.5,605.7-106
		C1943.2-24.5,2283.3,57.8,2286,161.3L2286,161.3z"/>
</g>
</svg>
