<?xml version="1.0" encoding="UTF-8"?><svg id="a" xmlns="http://www.w3.org/2000/svg" width="1920" height="1080" xmlns:xlink="http://www.w3.org/1999/xlink" viewBox="0 0 1920 1080"><defs><style>.g{fill:url(#e);}.h{fill:url(#c);}.i{fill:url(#b);}.j{fill:url(#d);}.j,.k{opacity:.8;}.k{fill:url(#f);}</style><linearGradient id="b" x1="960.65" y1="1381.27" x2="959.19" y2="-500.74" gradientTransform="matrix(1, 0, 0, 1, 0, 0)" gradientUnits="userSpaceOnUse"><stop offset=".09" stop-color="#c5df73"/><stop offset=".15" stop-color="#bed479"/><stop offset=".25" stop-color="#afbb8a"/><stop offset=".33" stop-color="#a2a697"/><stop offset=".5" stop-color="#8171b9"/><stop offset=".58" stop-color="#7157cb"/><stop offset=".67" stop-color="#6341d8"/><stop offset=".79" stop-color="#552ae8"/><stop offset=".99" stop-color="#4916f5"/></linearGradient><linearGradient id="c" x1="511.96" y1="1592.75" x2="510.84" y2="144.41" gradientTransform="translate(954 1606) rotate(-180)" xlink:href="#b"/><linearGradient id="d" x1="567.52" y1="919.52" x2="566.38" y2="-542.5" gradientTransform="translate(257.81 72.02) rotate(3.95) scale(.59 .57)" xlink:href="#b"/><linearGradient id="e" x1="-555" y1="1247.68" x2="-555.98" y2="-21.51" gradientTransform="translate(954 1606) rotate(-180)" xlink:href="#b"/><linearGradient id="f" x1="-462.71" y1="1690.68" x2="-463.41" y2="800.27" gradientTransform="translate(2145.92 -1023.38)" xlink:href="#b"/></defs><rect class="i" width="1920" height="1080"/><path class="h" d="M-211.14,783.35c-12.51-156.05,113.58-302.18,229.78-369.63,183.35-106.44,406.85-54.62,539.18,28.83,132.65,83.65,135.67,175.11,300.33,255.34,141.98,69.18,221.88,41.21,236.84,85.46,32.36,95.72-283.78,397.35-653.06,402.58-274.61,3.89-633.25-155.35-653.06-402.58Z"/><path class="j" d="M925.81,201.02c1.31,88.51-78.8,165.77-150.01,199.07-112.35,52.55-242.25,14.22-317.09-38.23-40.86-28.63-122-65.15-167.31-156.23-12.29-24.7-66.16-132.99-19.41-205.63,57.61-89.5,227.44-61.83,284.06-52.61,126.52,20.61,367.54,103.72,369.75,253.63Z"/><path class="g" d="M834,1055c-9.95-193.27,389.1-424.17,749-396,286.58,22.43,612.47,214.15,602,396-10.89,189.17-383.68,331.53-675.5,331-297.49-.54-666.18-149.85-675.5-331Z"/><path class="k" d="M2285.98,161.28c1.5,58.47-104.46,132.23-191.08,155.71-57,15.45-102.46,8.28-176.41,43.24-45.18,21.35-69.18,43.4-86.87,56.02-121.44,86.66-362.79,27.24-522.13-76.23-27.39-17.79-259.45-168.46-226.78-279.19,44.69-151.49,550.07-110.48,605.69-105.96,254.79,20.68,594.93,102.91,597.59,206.41Z"/></svg>